<?xml version="1.0" encoding="UTF-8" standalone="no"?>
<svg
   viewBox="0 0 551.45686 495.69601"
   version="1.1"
   id="svg82"
   sodipodi:docname="lesli-vue-logo.svg"
   width="551.45685"
   height="495.69601"
   xml:space="preserve"
   inkscape:version="1.2 (dc2aeda, 2022-05-15)"
   xmlns:inkscape="http://www.inkscape.org/namespaces/inkscape"
   xmlns:sodipodi="http://sodipodi.sourceforge.net/DTD/sodipodi-0.dtd"
   xmlns="http://www.w3.org/2000/svg"
   xmlns:svg="http://www.w3.org/2000/svg"><defs
     id="defs86" /><sodipodi:namedview
     id="namedview84"
     pagecolor="#ffffff"
     bordercolor="#000000"
     borderopacity="0.25"
     inkscape:showpageshadow="2"
     inkscape:pageopacity="0.0"
     inkscape:pagecheckerboard="0"
     inkscape:deskcolor="#d1d1d1"
     showgrid="false"
     inkscape:zoom="0.40410959"
     inkscape:cx="210.33898"
     inkscape:cy="292"
     inkscape:window-width="1792"
     inkscape:window-height="1002"
     inkscape:window-x="0"
     inkscape:window-y="25"
     inkscape:window-maximized="0"
     inkscape:current-layer="layer1" /><title
     id="title2">LesliCSS-logo</title><g
     id="ARTBOARD_2"
     data-name="ARTBOARD 2"
     transform="translate(-123.38937,0.00638826)"><g
       id="background"><path
         d="M 666.57,85.8 C 656.82,29.27 621.74,-3.86 565.22,2 514.55,5.9 374.22,0.05 298.22,0.05 265.08,0 191,-1.91 163.73,21.48 c -31.18,29.23 -35.08,44.83 -39,81.86 -3.9,62.37 1.95,204.64 1.95,267 0,42.88 11.8,88.59 54.68,108.08 52.62,23.39 177.39,17.22 249,14.3 68.85,-2.81 199.15,23.79 232.28,-63.91 17.57,-50.67 13.67,-286.49 3.93,-343.01 z"
         style="fill:#fec6b9"
         id="path4" /></g></g><g
     inkscape:groupmode="layer"
     id="layer1"
     inkscape:label="cat"><g
       style="overflow:visible;fill-rule:evenodd;stroke-width:0.501;stroke-linejoin:bevel"
       id="g268"
       transform="matrix(6.3546959,0,0,6.3546959,36.68933,10.413998)"><g
         stroke-linecap="round"
         stroke-linejoin="round"
         stroke-miterlimit="79.84"
         fill="none"
         font-family="'Times New Roman'"
         font-size="16px"
         stroke="#000000"
         class="stroke-000000"
         id="g255"><path
           d="m 5.033,51.867 c 2.516,6.171 8.428,13.592 15.206,17.072 9.093,4.667 19.693,7.222 30.492,3.229 6.611,-2.442 12.57,-7.736 15.898,-13.95 3.899,-7.28 4.342,-16.369 3.282,-24.56 C 68.489,25.285 65.533,20.717 62.117,14.72 59.312,9.794 54.897,0.66 51.552,0.854 c -2.618,0.36 -2.29,5.824 -3.008,8.599 -2.783,-0.297 -9.348,1.422 -12.083,2.283 -0.47,-1.088 -3.063,-6.424 -5.58,-6.373 -4.211,2.073 -2.275,23.685 0.957,28.195 -3.081,-0.379 -5.624,2.183 -4.669,5.799 -0.944,0.48 -3.218,3.308 -3.373,3.33 -0.009,-1.126 -0.932,-5.28 -1.996,-7.737 -0.655,-1.517 -2.954,-3.287 -5.688,-1.771 -2.137,1.187 -0.931,3.794 -0.056,4.099 0.188,0.472 1.15,0.354 1.15,1.517 -0.219,2.27 -1.861,3.996 -2.681,6.929 -0.807,2.893 0.148,7.289 1.667,9.48 -0.946,-1.243 -2.123,-2.363 -2.954,-4.449 -2.917,-7.32 -2.83,-14.868 0.875,-21.245 1.54,-2.65 7.35,-6.028 6.236,-9.405 C 19.123,16.382 13.537,17.867 10.94,19.902 8.698,21.657 5.239,27.037 4.157,31.334 2.486,37.977 2.572,46.383 5.033,51.867 Z"
           fill="#fde9c1"
           stroke-width="1.111"
           class="fill-ff436f"
           id="path247" /><path
           d="m 28.88,60.441 c -4.922,-1.171 -7.052,-6.186 -5.221,-10.868 1.41,-3.605 5.146,-4.681 7.564,-7.351 0.686,-0.758 1.505,-1.647 2.295,-2.542 -0.685,-3.46 1.034,-3.324 3.193,-4.233 2.459,-4.515 1.756,-8.81 8.365,-11.02 5.74,-1.919 10.319,5.321 11.52,10.472 -4.603,-1.243 -9.999,5.394 -6.198,7.125 1.993,0.907 4.15,-1.431 6.756,-1.664 0.036,5.788 -1.756,10.431 -4.889,13.85 -1.351,-4.535 -7.029,-6.478 -12.406,-6.862 0.327,-3.727 2.3,-15.686 -5.769,-11.092 -1.584,0.9 -0.483,5.727 -0.888,7.32 -0.261,1.02 -1.625,5.597 -0.778,6.436 4.361,4.31 3.896,7.54 -1.782,10.921 A 8.094,8.094 0 0 1 28.88,60.441 Z"
           fill="#fae6bf"
           stroke="none"
           stroke-width="0.555"
           class="fill-ff9e9e"
           id="path249" /><path
           d="m 53.201,56.445 c -1.24,-4.649 -8.94,-10.742 -13.457,-9.104 1.913,-2.478 1.422,-13.756 -4.484,-11.53 -3.374,1.27 -0.676,5.48 -1.369,7.182 -0.724,1.775 -3.077,7.848 -0.767,8.446 4.103,1.062 3.192,7.441 -1.914,9.002 M 58.226,40.518 c -2.76,-0.775 -3.531,1.848 -5.646,2.254 -3.393,0.652 -3.931,-2.859 -2.958,-5.013 1.315,-2.913 6.189,-4.216 9.541,-1.89 M 20.979,52.147 c -1.245,-3.53 0.874,-7.379 3.448,-9.965 m 2.789,-2.932 a 0.296,0.296 0 0 1 0.11,0.254 c 0.673,0.899 2.246,1.26 3.118,0.454 M 25.193,27.212 c 1.29,-0.448 2.577,-0.368 3.938,-0.303 m -3.282,2.984 c 0.855,-0.492 2.679,-1.156 3.665,-1.316 m 35.94,-8.495 c 1.279,-0.495 2.254,-1.168 3.61,-1.52 m -2.844,3.542 c 0.12,0.047 0.212,0.031 0.274,-0.051 1.326,-0.289 2.632,-0.573 3.993,-0.808 m -36.98,4.297 c 1.701,-2.695 5.354,-3.122 8.041,-1.313 M 49.21,22.63 c 1.145,-2.648 5.731,-3.133 7.944,-1.362 m -14.84,6.097 c 0.907,1.736 5.138,0.23 3.556,-2.176 0.519,2.378 4.392,2.533 4.541,-0.051"
           stroke-width="1.111"
           id="path251" /><path
           d="m 30.891,16.884 c -0.392,-1.363 -0.973,-5.204 0.108,-5.92 0.7,0.464 1.987,3.742 1.981,4.546 -0.319,0.23 -1.623,1.459 -2.054,1.498 z M 52.642,10.983 C 52.295,9.666 51.855,7.331 52.505,6.412 c 1.527,0.019 3.685,5.141 3.8,6.241 -1.361,0.526 -2.704,-1.329 -3.578,-1.359 a 13.553,13.553 0 0 1 -0.085,-0.311 z"
           fill="#fae6bf"
           stroke="none"
           stroke-width="0.555"
           class="fill-ff9e9e"
           id="path253" /></g></g></g></svg>
